<svg xmlns="http://www.w3.org/2000/svg" width="38" height="36" viewBox="0 0 38 36" fill="none">
<rect width="38" height="36" fill="#1A1A1A"/>
<path d="M22 21C23.3269 20.9997 24.6163 20.5595 25.6664 19.7484C26.7165 18.9372 27.4681 17.8008 27.8036 16.517C28.1391 15.2332 28.0396 13.8744 27.5206 12.6532C27.0016 11.432 26.0924 10.4173 24.9353 9.76783C23.7782 9.11837 22.4384 8.8708 21.1256 9.06385C19.8128 9.25691 18.601 9.8797 17.6799 10.8348C16.7587 11.7899 16.1802 13.0234 16.0347 14.3423C15.8893 15.6612 16.1851 16.9911 16.876 18.124L15.656 19.344L15.43 21.237L13.536 21.464L13.308 23.358L11.458 23.542L10 25L11.422 26.422C11.6068 26.6072 11.8264 26.7541 12.0681 26.8544C12.3098 26.9546 12.5688 27.0062 12.8305 27.0062C13.0922 27.0062 13.3512 26.9546 13.5929 26.8544C13.8346 26.7541 14.0542 26.6072 14.239 26.422L19.999 20.658C20.625 20.88 21.299 21 22 21Z" stroke="white" stroke-width="1.5" stroke-miterlimit="10" stroke-linecap="round" stroke-linejoin="round"/>
<path d="M22 17C22.5304 17 23.0391 16.7893 23.4142 16.4142C23.7893 16.0391 24 15.5304 24 15C24 14.4696 23.7893 13.9609 23.4142 13.5858C23.0391 13.2107 22.5304 13 22 13C21.4696 13 20.9609 13.2107 20.5858 13.5858C20.2107 13.9609 20 14.4696 20 15C20 15.5304 20.2107 16.0391 20.5858 16.4142C20.9609 16.7893 21.4696 17 22 17Z" stroke="white" stroke-width="1.5" stroke-miterlimit="10" stroke-linecap="round" stroke-linejoin="round"/>
</svg>
