<svg xmlns="http://www.w3.org/2000/svg" width="38" height="36" viewBox="0 0 38 36" fill="none">
<rect width="38" height="36" fill="#1A1A1A"/>
<path d="M20.25 19.4091H11.3864V17.5341H20.25C21.0682 17.5341 21.7443 17.392 22.2784 17.108C22.8125 16.8182 23.2102 16.4261 23.4716 15.9318C23.733 15.4318 23.8636 14.8636 23.8636 14.2273C23.8636 13.5909 23.733 13.0256 23.4716 12.5312C23.2102 12.0312 22.8125 11.6392 22.2784 11.3551C21.7443 11.0653 21.0682 10.9205 20.25 10.9205H16.2614V26.5H14.1477V9.04545H20.25C21.5455 9.04545 22.6136 9.28125 23.4545 9.75284C24.2955 10.2244 24.9205 10.8523 25.3295 11.6364C25.7386 12.4205 25.9432 13.2841 25.9432 14.2273C25.9432 15.1705 25.7386 16.0341 25.3295 16.8182C24.9205 17.6023 24.2955 18.2301 23.4545 18.7017C22.6136 19.1733 21.5455 19.4091 20.25 19.4091ZM20.1136 21.0455V22.9205H11.3864V21.0455H20.1136Z" fill="white"/>
</svg>