<svg xmlns="http://www.w3.org/2000/svg" width="38" height="36" viewBox="0 0 38 36" fill="none">
<rect width="38" height="36" fill="#1A1A1A"/>
<path d="M23.8226 7.81494C24.3227 7.7564 24.8834 7.87918 25.4261 8.36572L25.5335 8.46729L28.5335 11.4673C28.8414 11.7904 29.1223 12.2825 29.1859 12.8267C29.2482 13.3607 29.1043 13.9613 28.5364 14.5308L28.2366 14.8208L27.7913 15.2505H28.7503V18.0005C28.7502 18.9631 28.2075 20.2963 26.8079 20.6577L26.6702 20.6938L26.6302 20.8286C26.3983 21.6077 25.8312 22.3865 24.806 22.6587L24.6702 22.6948L24.6302 22.8286C24.4861 23.312 24.2163 23.7923 23.7943 24.1499C23.3757 24.5043 22.794 24.7504 22.0003 24.7505H18.306L18.2327 24.8237L15.5325 27.5337C15.1805 27.8855 14.5919 28.1996 13.9603 28.1997C13.4778 28.1997 12.9609 28.0273 12.4671 27.5337L9.4671 24.5337C9.1587 24.2102 8.87831 23.7202 8.81476 23.1772C8.75243 22.6446 8.89574 22.0434 9.46515 21.4683L10.1751 20.7681L10.2503 20.6948V16.6929L14.6165 12.3267L14.6468 12.2974L14.6644 12.2593C15.1888 11.1824 16.2096 10.2505 18.0003 10.2505H20.6937L20.7669 10.1763L22.4622 8.47021L22.4632 8.47119C22.7866 8.1615 23.2777 7.87879 23.8226 7.81494ZM11.7503 17.3062V21.3062L10.5325 22.5337C10.4821 22.5841 10.3565 22.7054 10.3196 22.8853C10.2832 23.0638 10.341 23.2401 10.4749 23.4087L10.5374 23.481L10.5433 23.4868L13.5335 26.4673C13.5838 26.5176 13.705 26.6432 13.8851 26.6802C14.0893 26.7219 14.2906 26.6403 14.4808 26.4624L14.4866 26.4565L17.6937 23.2505H22.0003C22.4676 23.2504 22.7977 23.0873 23.0023 22.8208C23.1974 22.5665 23.2503 22.254 23.2503 22.0005V21.2505H24.0003C24.4676 21.2504 24.7977 21.0873 25.0023 20.8208C25.1974 20.5665 25.2503 20.254 25.2503 20.0005V19.2505H26.0003C26.4676 19.2504 26.7977 19.0873 27.0023 18.8208C27.1974 18.5665 27.2503 18.254 27.2503 18.0005V16.7505H19.7503V17.0005C19.7502 17.5571 19.5642 18.2499 19.1292 18.7983C18.7012 19.3379 18.023 19.7504 17.0003 19.7505C15.9774 19.7505 15.2985 19.3379 14.8704 18.7983C14.4355 18.2499 14.2504 17.557 14.2503 17.0005V14.8062L11.7503 17.3062ZM24.1155 9.31982C23.9368 9.28316 23.7599 9.341 23.5911 9.4751L23.5189 9.5376L21.306 11.7505H18.0003C17.0001 11.7505 16.4184 12.1789 16.1009 12.6968C15.7951 13.1956 15.7503 13.7495 15.7503 14.0005V17.0005C15.7503 17.2541 15.8031 17.5664 15.9984 17.8208C16.203 18.0873 16.5329 18.2505 17.0003 18.2505C17.4676 18.2504 17.7977 18.0873 18.0023 17.8208C18.1974 17.5665 18.2503 17.254 18.2503 17.0005V15.2505H25.6937L25.7669 15.1763L27.4661 13.4663L27.4671 13.4673C27.5172 13.4172 27.6429 13.296 27.68 13.1157C27.7219 12.9113 27.6402 12.7093 27.4622 12.519L27.4564 12.5132L24.4661 9.53271C24.4156 9.48219 24.295 9.35672 24.1155 9.31982Z" fill="white" stroke="#1A1A1A" stroke-width="0.5"/>
</svg>