<svg width="38" height="36" viewBox="0 0 38 36" fill="none" xmlns="http://www.w3.org/2000/svg">
<rect width="38" height="36" fill="#1A1A1A"/>
<path d="M15 19V11.5C15 11.1022 15.158 10.7206 15.4393 10.4393C15.7206 10.158 16.1022 10 16.5 10C16.8978 10 17.2794 10.158 17.5607 10.4393C17.842 10.7206 18 11.1022 18 11.5M18 11.5V18M18 11.5V9.5C18 9.30302 18.0388 9.10796 18.1142 8.92597C18.1896 8.74399 18.3001 8.57863 18.4393 8.43934C18.5786 8.30005 18.744 8.18956 18.926 8.11418C19.108 8.0388 19.303 8 19.5 8C19.697 8 19.892 8.0388 20.074 8.11418C20.256 8.18956 20.4214 8.30005 20.5607 8.43934C20.6999 8.57863 20.8104 8.74399 20.8858 8.92597C20.9612 9.10796 21 9.30302 21 9.5V18M21 11.5C21 11.1022 21.158 10.7206 21.4393 10.4393C21.7206 10.158 22.1022 10 22.5 10C22.8978 10 23.2794 10.158 23.5607 10.4393C23.842 10.7206 24 11.1022 24 11.5V18" stroke="white" stroke-width="2" stroke-linecap="round" stroke-linejoin="round"/>
<path d="M24 13.5C24 13.1022 24.158 12.7206 24.4393 12.4393C24.7206 12.158 25.1022 12 25.5 12C25.8978 12 26.2794 12.158 26.5607 12.4393C26.842 12.7206 27 13.1022 27 13.5V22C27 23.5913 26.3679 25.1174 25.2426 26.2426C24.1174 27.3679 22.5913 28 21 28H19H19.208C18.2143 28.0002 17.2362 27.7535 16.3614 27.2823C15.4866 26.811 14.7425 26.1299 14.196 25.3L14 25C13.688 24.5213 12.5927 22.612 10.714 19.272C10.5225 18.9315 10.4713 18.5298 10.5714 18.1522C10.6715 17.7745 10.9149 17.4509 11.25 17.25C11.607 17.0364 12.0251 16.9479 12.4381 16.9986C12.851 17.0494 13.2353 17.2363 13.53 17.53L15 19" stroke="white" stroke-width="2" stroke-linecap="round" stroke-linejoin="round"/>
</svg>
