<svg width="24" height="24" viewBox="0 0 24 24" fill="none" xmlns="http://www.w3.org/2000/svg">
<path d="M2.14799 11.8101C7.39465 9.5241 10.8937 8.01677 12.645 7.2881C17.644 5.2091 18.682 4.8481 19.359 4.8361C19.509 4.8331 19.841 4.8701 20.057 5.0461C20.239 5.1931 20.289 5.3931 20.313 5.5331C20.337 5.6731 20.367 5.9921 20.343 6.2411C20.073 9.0881 18.9 15.9951 18.303 19.1831C18.051 20.5311 17.555 20.9831 17.073 21.0281C16.028 21.1241 15.235 20.3381 14.223 19.6741C12.638 18.6351 11.743 17.9881 10.205 16.9751C8.42799 15.8041 9.57999 15.1601 10.593 14.1081C10.858 13.8331 15.463 9.6441 15.553 9.2641C15.563 9.2161 15.574 9.0391 15.469 8.9461C15.364 8.8521 15.209 8.8841 15.096 8.9101C14.9367 8.9461 12.406 10.6188 7.50399 13.9281C6.78465 14.4214 6.13399 14.6618 5.55199 14.6491C4.90899 14.6351 3.67199 14.2861 2.75399 13.9871C1.62599 13.6201 0.729987 13.4271 0.807987 12.8041C0.848653 12.4801 1.29532 12.1488 2.14799 11.8101Z" fill="#57A0FF"/>
</svg>
